<svg width="415" height="170" viewBox="0 0 415 170" fill="none" xmlns="http://www.w3.org/2000/svg">
<path d="M170.863 48.3355L186.11 85.8965H186.666L201.913 48.3355H210.683V96.6582H203.808V61.69H203.361L189.235 96.5881H183.531L169.414 61.66H168.968V96.6482H162.093V48.3355H170.863Z" fill="#040B04"/>
<path d="M220.583 86.4177C220.583 78.1787 227.547 76.3868 234.352 75.5859C240.81 74.8351 243.429 74.8751 243.429 72.3023V72.1321C243.429 68.0277 241.118 65.6451 236.604 65.6451C231.902 65.6451 229.283 68.1278 228.261 70.6906L221.694 69.1789C224.035 62.5717 230.017 59.9288 236.515 59.9288C242.219 59.9288 250.453 62.0311 250.453 72.5726V96.6389H243.628V91.6835H243.35C242.021 94.3964 238.678 97.4397 232.735 97.4397C225.89 97.4598 220.583 93.5455 220.583 86.4177ZM243.449 83.5846V78.9095C242.447 79.9206 237.071 80.5413 234.799 80.8416C230.751 81.3822 227.438 82.7337 227.438 86.5078C227.438 90.0016 230.295 91.7936 234.243 91.7936C240.057 91.7936 243.449 87.8793 243.449 83.5846Z" fill="#040B04"/>
<path d="M259.719 109.373L261.405 103.596C265.244 104.658 267.744 104.237 269.52 99.5421L270.383 97.1394L257.238 60.4294H264.718L273.815 88.5501H274.192L283.289 60.4294L290.839 60.4995L275.988 101.504C273.934 107.12 270.264 110.164 264.48 110.164C262.387 110.154 260.562 109.773 259.719 109.373Z" fill="#040B04"/>
<path d="M296.285 86.4177C296.285 78.1787 303.249 76.3868 310.054 75.5859C316.512 74.8351 319.131 74.8751 319.131 72.3023V72.1321C319.131 68.0277 316.82 65.6451 312.306 65.6451C307.604 65.6451 304.985 68.1278 303.963 70.6906L297.396 69.1789C299.737 62.5717 305.719 59.9288 312.217 59.9288C317.921 59.9288 326.155 62.0311 326.155 72.5726V96.6389H319.33V91.6835H319.052C317.723 94.3964 314.379 97.4397 308.437 97.4397C301.592 97.4598 296.285 93.5455 296.285 86.4177ZM319.151 83.5846V78.9095C318.149 79.9206 312.772 80.5413 310.501 80.8416C306.453 81.3822 303.14 82.7337 303.14 86.5078C303.14 90.0016 305.997 91.7936 309.945 91.7936C315.758 91.7936 319.151 87.8793 319.151 83.5846Z" fill="#040B04"/>
<path d="M365.717 48.3362V82.0329C365.697 91.4032 359.08 97.3196 349.368 97.3196C340.698 97.3196 333.863 92.7146 333.912 83.0641H343.992C344.061 86.9083 346.353 89.1307 349.884 89.1307C353.624 89.1307 355.688 86.678 355.707 82.0329V48.3362H365.717Z" fill="#990700"/>
<path d="M393.494 56.2148C388.534 56.2148 385.806 58.5073 385.806 61.6207C385.736 65.0945 389.218 66.6462 393.385 67.6172L397.69 68.6584C406.013 70.5504 412.025 74.8151 412.045 82.8639C412.025 91.7135 405.15 97.3497 393.454 97.3497C381.837 97.3497 374.427 91.9438 374.169 81.4924H383.96C384.288 86.3276 388.077 88.7803 393.335 88.7803C398.484 88.7803 401.797 86.3777 401.827 82.8338C401.807 79.5803 398.9 78.0686 393.692 76.7972L388.474 75.4758C380.379 73.5137 375.409 69.4392 375.429 62.3114C375.379 53.5319 383.077 47.6855 393.573 47.6855C404.237 47.6855 411.251 53.632 411.39 62.2414H401.688C401.301 58.4372 398.325 56.2148 393.494 56.2148Z" fill="#990700"/>
<path d="M92.4227 42.2295C99.9919 28.1141 107.323 11.7363 123.205 6.99109C144.217 0.714244 159.325 10.7752 163.085 16.5015C164.137 18.1032 162.152 18.1933 161.776 18.9241C161.21 20.0353 160 21.2466 159.206 21.8773C158.522 22.4179 158.095 22.5481 157.559 22.9885C157.292 23.2088 157.708 23.2989 157.43 23.6393C157.093 24.0697 156.944 25.3711 156.706 25.9818C156.399 26.7827 157.004 26.6826 156.627 28.6848C156.528 29.2053 157.083 28.6247 156.548 30.2164C156.548 30.2164 156.23 32.3888 156.022 33.0395C146.498 61.7708 148.304 90.0117 115.507 111.785C105.041 118.733 88.524 123.628 71.3024 124.569C56.9378 144.551 42.8212 168.677 20.9569 169.739C27.3357 156.434 40.0832 136.653 49.5472 119.414C56.541 106.69 62.5428 96.1784 67.5823 87.579L92.4227 42.2295Z" fill="url(#paint0_linear)"/>
<path d="M49.5472 119.414C55.7077 121.936 71.6893 123.979 71.3024 123.999C63.2174 141.408 36.3036 173.202 20.9569 169.739C25.8278 161.45 41.1546 134.47 49.5472 119.414Z" fill="url(#paint1_linear)"/>
<path d="M95.5079 36.4933C102.879 21.557 113.275 9.95432 123.205 6.99109C144.217 0.714244 159.325 10.7752 163.085 16.5015C164.137 18.1032 162.152 18.1933 161.775 18.9241C161.21 20.0353 160 21.2466 159.206 21.8773C158.522 22.4179 158.095 22.5481 157.559 22.9885C157.292 23.2088 157.708 23.2989 157.43 23.6393C157.093 24.0697 156.944 25.3711 156.706 25.9818C156.399 26.7827 157.004 26.6826 156.627 28.6848C156.528 29.2053 157.083 28.6247 156.548 30.2164C156.548 30.2164 156.23 32.3888 156.022 33.0395C152.53 43.571 147.857 64.1935 146.359 69.2991C116.212 72.032 95.5079 36.4933 95.5079 36.4933Z" fill="black"/>
<path d="M136.935 25.8615C134.048 25.8615 131.697 23.489 131.697 20.5758C131.697 17.6626 134.048 15.29 136.935 15.29C139.822 15.29 142.173 17.6626 142.173 20.5758C142.173 23.489 139.832 25.8615 136.935 25.8615Z" fill="#100408"/>
<path d="M136.935 15.4103C139.752 15.4103 142.044 17.7228 142.044 20.5759C142.044 23.429 139.752 25.7415 136.935 25.7415C134.108 25.7415 131.816 23.429 131.816 20.5759C131.826 17.7228 134.118 15.4103 136.935 15.4103ZM136.935 15.16C133.979 15.16 131.568 17.5927 131.568 20.5759C131.568 23.5592 133.979 25.9918 136.935 25.9918C139.891 25.9918 142.292 23.5692 142.292 20.5759C142.302 17.5927 139.891 15.16 136.935 15.16Z" fill="white"/>
<path d="M137.352 18.0432C136.826 18.824 138.126 18.2734 138.899 18.804C139.673 19.3346 139.633 20.7661 140.169 19.9853C140.705 19.1944 140.497 18.1333 139.723 17.5927C138.949 17.0621 137.887 17.2623 137.352 18.0432Z" fill="white"/>
<path d="M74.3083 73.804C72.969 77.2077 76.6594 79.9507 82.4429 79.0297C113.821 74.0142 111.49 51.5897 111.49 51.5897C105.756 27.3133 68.6438 41.1183 8.6359 26.9228C2.94165 25.5714 1.9397 27.7437 3.95352 33.2898C6.23519 39.5666 16.3539 46.5943 26.4131 48.3862C26.4131 48.3862 21.9192 49.7677 20.8875 51.1993C18.5364 54.4629 20.7287 58.7075 26.2345 60.7197C37.5932 64.8742 45.222 61.2002 52.0174 60.6496C49.6563 62.1012 47.6921 64.0433 46.1445 65.9354C43.3669 69.3391 46.2041 75.0754 52.0372 75.4958C61.6202 76.1966 71.0246 71.9219 76.7288 67.6272C76.7288 67.6372 75.6376 70.4003 74.3083 73.804Z" fill="url(#paint2_linear)"/>
<path d="M163.164 24.7705C162.371 25.0007 161.885 24.6904 161.399 23.7093C160.912 22.7282 158.155 23.1487 157.43 23.6292C156.696 24.1097 156.22 26.4022 156.448 27.994C156.676 29.5857 156.022 33.0295 156.022 33.0295L168.74 27.7437C170.297 27.2632 171.16 27.0229 171.587 26.7326C170.644 26.5524 168.065 25.4112 167.529 25.1609C166.607 24.7404 163.958 24.5402 163.164 24.7705Z" fill="#99A894"/>
<path d="M171.765 25.4813C168.054 14.4793 156.408 10.9854 156.408 10.9854C156.408 10.9854 163.66 15.2801 161.805 16.6917C159.95 18.0932 159.186 21.8873 159.186 21.8873L157.539 22.9985C157.539 22.9985 160.703 22.2778 161.338 23.0886C161.973 23.8995 162.102 24.7905 163.064 24.4902C164.037 24.1898 167.152 24.5002 167.687 24.8305C168.164 25.1209 171.179 26.0419 171.784 26.5524C171.983 26.2821 171.933 25.9718 171.765 25.4813Z" fill="#99A894"/>
<defs>
<linearGradient id="paint0_linear" x1="57.7567" y1="131.708" x2="177.495" y2="-9.19314" gradientUnits="userSpaceOnUse">
<stop stop-color="#E01D00"/>
<stop offset="0.4528" stop-color="#5E1402"/>
</linearGradient>
<linearGradient id="paint1_linear" x1="26.8776" y1="187.912" x2="63.0737" y2="112.134" gradientUnits="userSpaceOnUse">
<stop offset="0.00434028" stop-color="#E01D00"/>
<stop offset="1" stop-color="#990700"/>
</linearGradient>
<linearGradient id="paint2_linear" x1="9.20508" y1="54.1346" x2="81.3219" y2="51.49" gradientUnits="userSpaceOnUse">
<stop offset="0.00434028" stop-color="#E01D00"/>
<stop offset="1" stop-color="#990700"/>
</linearGradient>
</defs>
</svg>
